<svg width="66" height="66" viewBox="0 0 66 66" fill="none" xmlns="http://www.w3.org/2000/svg">
<g clip-path="url(#clip0_2_26)">
<path fill-rule="evenodd" clip-rule="evenodd" d="M29.6148 30.717C29.5268 34.389 29.5464 38.1861 28.665 41.623C28.265 43.1832 27.7863 44.7251 26.9296 45.738C25.9721 46.8708 25.2679 47.5933 23.6999 48.4831C21.5606 49.6967 17.0965 51.0184 14.1188 50.4569C10.1256 49.7039 9.37065 46.336 9.37065 42.9597C9.37065 39.3027 10.3947 34.1389 11.8851 31.3339C13.4257 28.4331 13.0824 29.2728 14.6426 26.972C16.2998 24.5291 24.1885 18.054 26.473 17.4463C27.525 17.1662 28.5745 17.4378 29.194 17.9615C29.9477 18.5973 29.7399 19.7262 29.7457 20.9717C29.7561 23.3546 29.6956 25.7284 29.689 28.108C31.9247 27.0684 31.3332 24.8737 31.3345 22.6244V10.1686C31.3345 9.20843 31.5769 8.74918 32.5364 8.74723C34.1311 8.74462 33.7363 10.5464 33.737 12.8375L33.7383 24.1494C33.7389 25.2203 33.3383 27.3459 35.3877 28.1093C35.387 26.9615 35.1525 19.2885 35.4495 18.542C35.6847 17.9505 36.557 17.3688 37.5106 17.3205C39.2167 17.2339 40.9527 18.7035 41.8882 19.3751C43.1903 20.3099 44.4984 21.2453 45.6573 22.2127C51.1083 26.7655 54.2306 31.2524 55.3061 38.7477C55.8279 42.3813 56.3998 46.8174 53.5459 49.2296C50.9383 51.4334 46.2097 50.539 43.105 49.298C39.7795 47.9685 37.6917 46.108 36.6846 42.621C35.5824 38.803 35.5062 34.8952 35.4639 30.7105C34.0998 30.0291 33.1116 28.8226 32.537 28.4598C31.9495 28.8311 30.7756 30.1646 29.6141 30.717H29.6148ZM0 30.6147V35.0092C0.364143 35.828 0.321801 37.2741 0.505501 38.2636C0.708092 39.3574 0.930877 40.3058 1.21685 41.367C1.73603 43.2952 2.48386 45.2143 3.33591 46.865C4.86349 49.8244 5.8315 51.3585 7.91669 53.7225C8.56615 54.4586 8.96417 55.0585 9.69897 55.7562C13.7104 59.5676 18.4163 62.4769 24.2152 63.9895C25.2835 64.2683 26.2417 64.4826 27.3687 64.663C28.1276 64.7848 30.2597 64.9034 30.7326 65.0747H34.5662C35.1557 64.8415 37.0957 64.7666 37.9445 64.6259C39.02 64.4481 40.059 64.2175 41.0641 63.9367C47.0051 62.2743 52.8281 58.8179 56.4838 54.5778C60.7884 49.5846 63.4599 44.7856 64.6253 37.9347C64.7764 37.0448 64.8148 35.2215 65.0754 34.5649V30.6212C64.6337 29.4584 65.2291 25.9225 61.9603 18.6149C58.2804 10.3875 50.1657 3.59711 41.4673 1.24158C40.4277 0.960171 39.4291 0.704163 38.3725 0.516555C37.8442 0.422751 35.3987 0.173257 35.0085 -0.000671387H30.0662C28.6311 0.652701 22.4557 -0.0938242 13.5091 6.1396L11.3686 7.81244C10.6083 8.49122 10.0325 8.95307 9.37456 9.62729L6.40344 13.1352C5.28756 14.5181 4.06746 16.7962 3.15938 18.5361C2.35683 20.0728 1.60249 22.2616 1.09764 24.1064C0.832513 25.075 0.601259 26.1896 0.42733 27.2475C0.288578 28.0891 0.218225 30.0193 0 30.614L0 30.6147Z" fill="#ED3237"/>
<path fill-rule="evenodd" clip-rule="evenodd" d="M22.0049 33.1363C21.6805 33.6607 20.0356 34.8763 19.0553 36.0821C18.6527 36.5771 16.731 38.7913 16.9629 39.8499C17.1525 40.713 18.3556 40.8706 18.8019 40.1521C19.2383 39.4492 19.0527 39.4102 19.9659 38.2663C20.2526 37.9073 20.3529 37.7816 20.5867 37.4852L22.8413 35.2535C22.8198 36.4983 21.7847 39.6616 21.3515 40.7977C21.0675 41.5422 20.2513 42.7396 21.0812 43.363C22.2192 44.2176 22.7234 42.8229 23.0296 42.0933C24.8229 37.8253 24.4712 36.6989 25.2314 33.5969C25.3727 33.0191 25.6496 33.1155 26.202 32.8087C26.6762 32.5449 26.9915 32.3156 27.54 32.1286C27.4879 35.114 27.4358 37.9393 26.7739 40.7592C26.0352 43.9062 25.2196 45.1322 23.0843 46.4683C21.2375 47.6239 18.3915 48.5033 15.7591 48.5241C12.0304 48.5541 11.4226 46.4227 11.4226 43.0848C11.4226 40.5032 12.0226 36.796 12.7723 34.5043C14.6588 28.7386 19.4715 24.335 24.3637 21.0577C25.0796 20.5783 26.4821 19.1953 27.6051 19.3888C27.8794 20.0806 27.6338 28.7282 27.6338 28.7321C27.6247 29.4141 27.7015 29.5464 27.2013 29.8662C26.9146 30.0493 26.5303 30.2766 26.1629 30.4825C25.5994 30.7991 24.6295 31.513 24.0178 31.3958C15.5806 29.775 17.4821 32.98 18.8038 33.0543C19.8676 33.1142 20.902 33.0373 22.0029 33.1344L22.0049 33.1363ZM37.4709 19.3973C38.5014 19.1849 39.9827 20.5529 40.6257 21.0134C43.8965 23.3572 45.7504 24.6848 48.4668 27.7915C51.5467 31.3143 53.2782 35.9941 53.6228 42.1937C53.8026 45.4345 53.4651 48.2121 50.1449 48.4987C47.4304 48.7326 44.2476 47.7392 42.3076 46.6617C40.0401 45.4026 39.0825 44.0372 38.3164 40.8641C37.7529 38.5307 37.407 34.5857 37.5588 32.0934C37.8005 32.1983 39.7573 33.2529 39.844 33.3637C40.0225 33.593 40.3351 35.8215 40.4439 36.325C40.8765 38.3216 41.3787 39.9958 42.0777 41.808C42.3813 42.5949 42.7884 43.9948 44.0111 43.3851C45.4664 42.6594 42.5949 39.2323 42.3747 35.3818C43.3343 36.3674 44.2814 37.1556 45.2175 38.4148L46.3784 40.3013C47.1307 41.1351 50.1696 40.3925 45.8455 36.0091C45.3485 35.5049 43.2483 33.5168 43.0021 33.0953C44.0613 32.9852 46.9405 33.2308 47.3561 32.6106C47.7457 32.0296 47.4519 31.2479 46.8715 31.0407C45.5608 30.5737 40.8621 31.4466 40.4947 31.3345C39.6316 31.0707 38.3164 29.9978 37.4533 29.6669C37.4455 29.0506 37.1569 20.1829 37.4709 19.3973V19.3973ZM29.6148 30.7163C30.7762 30.1639 31.9501 28.8305 32.5377 28.4592C33.1122 28.822 34.1004 30.0284 35.4645 30.7098C35.5068 34.8945 35.5837 38.803 36.6853 42.6203C37.6917 46.108 39.7801 47.9678 43.1056 49.2974C46.2103 50.539 50.9389 51.4327 53.5466 49.229C56.4011 46.8168 55.8285 42.3806 55.3067 38.747C54.2306 31.2518 51.109 26.7642 45.6579 22.2121C44.499 21.2447 43.191 20.3093 41.8888 19.3745C40.9533 18.7029 39.2173 17.2326 37.5113 17.3199C36.5576 17.3681 35.6853 17.9498 35.4502 18.5413C35.1531 19.2872 35.3876 26.9602 35.3883 28.1087C33.3389 27.3446 33.7395 25.2197 33.7389 24.1487L33.7376 12.8368C33.7376 10.5458 34.1323 8.74398 32.537 8.74658C31.5775 8.74854 31.3352 9.20779 31.3352 10.168V22.6238C31.3338 24.8737 31.9253 27.0677 29.6897 28.1074C29.6962 25.7278 29.7568 23.3546 29.7463 20.9711C29.7405 19.7256 29.9483 18.5967 29.1946 17.9609C28.5751 17.4378 27.525 17.1662 26.4736 17.4456C24.1891 18.0534 16.2998 24.5285 14.6432 26.9713C13.0824 29.2721 13.4264 28.4324 11.8858 31.3332C10.396 34.1382 9.37128 39.302 9.37128 42.9591C9.37128 46.3354 10.1256 49.7032 14.1195 50.4563C17.0971 51.0178 21.5606 49.696 23.7005 48.4825C25.2685 47.5933 25.9727 46.8708 26.9303 45.7374C27.7869 44.7238 28.2657 43.1819 28.6656 41.6224C29.547 38.1855 29.5275 34.3877 29.6154 30.7163H29.6148Z" fill="#FDFDFD"/>
<path fill-rule="evenodd" clip-rule="evenodd" d="M37.4709 19.3979C37.1576 20.1835 37.4455 29.0513 37.4533 29.6675C38.3158 29.9984 39.631 31.0713 40.4948 31.3351C40.8615 31.4472 45.5609 30.5743 46.8715 31.0414C47.4519 31.2479 47.7457 32.0302 47.3562 32.6113C46.9399 33.2314 44.0606 32.9858 43.0021 33.0959C43.2483 33.5174 45.3485 35.5055 45.8455 36.0097C50.1703 40.3931 47.1314 41.1357 46.3784 40.3019L45.2176 38.4154C44.2815 37.1562 43.3343 36.368 42.3748 35.3824C42.595 39.2323 45.4664 42.6594 44.0111 43.3857C42.7884 43.9961 42.3813 42.5956 42.0777 41.8087C41.3788 39.9964 40.8765 38.3223 40.444 36.3257C40.3352 35.8221 40.0219 33.5943 39.844 33.3643C39.758 33.2536 37.8012 32.1989 37.5588 32.094C37.4071 34.5864 37.753 38.5314 38.3164 40.8647C39.0825 44.0385 40.0394 45.4038 42.3077 46.6624C44.2483 47.7398 47.4304 48.7339 50.1449 48.4994C53.4652 48.2127 53.8026 45.4357 53.6228 42.1943C53.2782 35.9947 51.5468 31.315 48.4668 27.7921C45.7504 24.6855 43.8971 23.3579 40.6257 21.0141C39.9828 20.5529 38.5014 19.1855 37.4709 19.3979V19.3979Z" fill="#ED3237"/>
<path fill-rule="evenodd" clip-rule="evenodd" d="M22.0049 33.1363C20.904 33.0386 19.8689 33.1155 18.8058 33.0562C17.4834 32.9819 15.5826 29.777 24.0197 31.3977C24.6314 31.5149 25.6014 30.801 26.1649 30.4844C26.5323 30.2779 26.9166 30.0512 27.2032 29.8682C27.7035 29.549 27.626 29.4161 27.6358 28.734C27.6358 28.7295 27.8813 20.0825 27.6071 19.3907C26.4834 19.1973 25.0809 20.5802 24.3656 21.0597C19.4735 24.337 14.6608 28.7406 12.7743 34.5063C12.0245 36.7979 11.4246 40.5052 11.4246 43.0867C11.4246 46.424 12.0323 48.556 15.7611 48.5261C18.3928 48.5046 21.2388 47.6258 23.0863 46.4702C25.2216 45.1341 26.0372 43.9082 26.7759 40.7612C27.4377 37.9412 27.4898 35.116 27.542 32.1305C26.9935 32.3175 26.6788 32.5474 26.2039 32.8106C25.6515 33.1174 25.3747 33.021 25.2333 33.5988C24.4731 36.7009 24.8249 37.8272 23.0315 42.0953C22.7247 42.8249 22.2212 44.2196 21.0831 43.3649C20.2526 42.7415 21.0695 41.5442 21.3535 40.7996C21.7867 39.6635 22.8218 36.5002 22.8433 35.2554L20.5887 37.4871C20.3549 37.7835 20.2545 37.9093 19.9679 38.2682C19.0546 39.4121 19.2403 39.4505 18.8038 40.154C18.3576 40.8726 17.1544 40.7149 16.9649 39.8518C16.733 38.7932 18.654 36.5791 19.0572 36.084C20.0383 34.8782 21.6824 33.6627 22.0069 33.1383L22.0049 33.1363Z" fill="#ED3237"/>
</g>
<defs>
<clipPath id="clip0_2_26">
<rect width="65.0754" height="65.0754" fill="white"/>
</clipPath>
</defs>
</svg>
