<svg width="71" height="71" viewBox="0 0 71 71" fill="none" xmlns="http://www.w3.org/2000/svg">
<g clip-path="url(#clip0_3_33)">
<path fill-rule="evenodd" clip-rule="evenodd" d="M35.278 66.5593C34.1189 66.5593 32.7489 66.3984 31.6821 66.2967C30.4091 66.1748 29.4662 65.9718 28.3762 65.744C24.0089 64.8317 18.5737 62.2457 15.2641 59.2879C10.8572 55.3498 7.69798 51.2556 5.69992 45.4254C2.85496 37.1226 3.64596 27.3827 8.07186 19.9231C10.2692 16.2196 11.1826 15.2182 14.1573 12.2283C14.9098 11.4721 16.5361 10.294 17.384 9.66702C18.8721 8.56701 20.587 7.62783 22.3694 6.79728C31.2386 2.66458 42.4428 3.21565 50.6328 8.07132C52.1599 8.97675 53.9835 10.0984 55.2918 11.2675C57.5002 13.2408 57.4465 13.2872 59.2215 15.1929C59.8564 15.8748 60.3346 16.6362 60.8889 17.384C64.4347 22.1669 66.5598 29.249 66.5598 35.2774C66.5598 36.4365 66.399 37.8065 66.2972 38.8733C66.1754 40.1463 65.9723 41.0891 65.7445 42.1791C64.4183 48.5282 60.9964 53.9038 56.3997 58.3281C56.0321 58.682 55.7574 58.8539 55.363 59.2209C52.2876 62.0843 46.3978 64.8686 42.2952 65.7213C40.1136 66.1748 37.5914 66.5593 35.2785 66.5593H35.278ZM33.6691 -2.19847e-05H37.3029C41.7277 0.22884 46.1199 1.29616 50.2088 3.25942C57.8082 6.90802 63.7808 12.7619 67.3413 20.4399C69.7855 25.7111 70.5559 30.0115 70.5559 36.5177C70.5559 43.19 67.6709 50.8548 64.1008 55.6941C60.2471 60.9179 56.116 64.4594 50.2088 67.2959C44.9961 69.7987 40.3857 70.5554 34.0382 70.5554C29.1836 70.5554 23.5195 68.8579 20.2559 67.2501C11.7748 63.0725 5.14517 56.1661 2.0144 47.1819C0.292661 42.2414 0.000518799 39.3574 0.000518799 34.0371C0.000518799 29.1825 1.698 23.5184 3.30583 20.2548C4.23605 18.3659 5.24694 16.4997 6.45611 14.8607C7.67425 13.2091 8.85864 11.7431 10.3014 10.3003C16.5914 4.01034 25.0504 0.4403 33.6691 -0.000549316V-2.19847e-05Z" fill="#ED3237"/>
<path fill-rule="evenodd" clip-rule="evenodd" d="M38.9983 37.7585C38.9983 36.4396 40.6783 36.6558 41.203 36.6558C42.7824 36.6558 42.7824 38.9988 41.203 38.9988C40.4927 38.9988 38.9983 39.1517 38.9983 37.7585ZM27.9739 16.8123H42.4433V33.3489H27.9739V16.8123ZM24.253 16.6747V35.0027C24.253 38.6876 26.5269 41.9023 29.212 43.6862C29.8686 44.1223 31.5117 45.0394 32.5216 45.062C32.5216 43.8276 33.1707 42.9522 34.3129 42.8573C34.3129 42.312 34.2312 39.1633 34.3773 38.7873C34.6541 38.0728 35.7441 37.9652 36.1343 38.6934C36.3442 39.0847 36.2424 42.273 36.2424 42.8573C37.3846 42.9522 38.0338 43.8276 38.0338 45.062C39.8705 45.0209 42.8035 42.7544 43.7058 41.6386C44.9033 40.1568 46.3023 37.634 46.3023 35.0021V16.6742C46.3023 15.6649 45.6616 14.181 45.1607 13.5439L44.0812 12.4186C43.0049 11.5665 41.9007 11.0244 40.3772 11.0244H30.1797C27.8099 11.0244 25.8192 12.5051 24.8742 14.4003C24.5731 15.0041 24.2541 15.8473 24.2541 16.6742L24.253 16.6747Z" fill="#ED3237"/>
<path fill-rule="evenodd" clip-rule="evenodd" d="M34.7264 39.274V43.4083C33.744 43.4083 33.0727 43.846 33.0727 44.7862V56.3617C33.0727 56.7656 33.7714 57.4643 34.1753 57.4643C35.3212 57.4643 37.4827 57.8751 37.4827 56.0864V44.7868C37.4827 43.9177 36.7482 43.4088 35.829 43.4088V39.2746C35.829 38.54 34.7264 38.54 34.7264 39.2746V39.274Z" fill="#ED3237"/>
<path fill-rule="evenodd" clip-rule="evenodd" d="M39.4117 30.1791C39.4117 29.8269 39.63 30.157 39.4934 30.1791C39.4918 30.1791 39.4117 30.5636 39.4117 30.1791ZM37.0688 29.9034L37.1099 29.9445C37.1073 29.9418 37.055 29.9171 37.0688 29.9034ZM37.4822 28.112C37.8471 28.2871 38.1777 28.2776 38.7314 28.266C39.4407 28.2512 39.533 28.2765 39.687 27.6986C39.2187 27.4354 38.3159 27.5609 37.758 27.5609C37.2792 27.5609 37.5645 27.8051 36.9311 27.9744C36.9311 30.852 36.5926 30.5926 38.9983 30.5926C39.4976 30.5926 39.7676 30.4771 40.1009 30.3168V27.9738C39.225 28.0466 39.4117 28.3451 39.4117 29.9034H37.4822C37.6857 29.4799 37.6778 28.5497 37.4822 28.112ZM37.3446 25.7691C38.2621 25.9832 38.0348 25.9072 39.1359 25.9072C39.5847 25.9072 39.6674 25.516 39.8251 25.218C39.1385 25.218 38.2579 25.1669 37.5982 25.2064C36.9095 25.2475 37.0635 25.1009 37.0187 25.5276L37.0376 25.7158C37.035 25.7559 36.5509 28.4664 37.383 27.6342C37.6931 27.3242 37.8835 26.2806 37.3451 25.7696L37.3446 25.7691Z" fill="#ED3237"/>
<path fill-rule="evenodd" clip-rule="evenodd" d="M34.3129 30.1792L34.3541 30.2203C34.3514 30.2177 34.2992 30.1929 34.3129 30.1792ZM31.97 29.9034L32.0111 29.9445C32.0085 29.9419 31.9563 29.9171 31.97 29.9034ZM32.6592 30.5926L34.864 30.455C35.0881 29.4937 35.0016 29.5395 35.0016 28.3879C35.0016 27.8611 35.0438 28.3378 34.864 27.9744C34.0393 28.1949 34.3129 28.9927 34.3129 30.0416C33.851 29.8201 33.0632 29.9039 32.3834 29.9039C32.5996 29.4531 32.5211 29.0286 32.5211 28.3879C32.1208 28.12 32.336 28.1089 31.8318 27.9744C31.8318 29.6999 31.5339 30.5926 32.6587 30.5926H32.6592Z" fill="#ED3237"/>
<path fill-rule="evenodd" clip-rule="evenodd" d="M34.3129 25.3557L34.3541 25.3968C34.3514 25.3942 34.2992 25.3694 34.3129 25.3557ZM31.8324 27.6986C32.7721 27.4476 32.6751 26.4109 32.2458 25.7691C32.8285 25.9052 33.7345 26.047 34.3129 25.7691C34.3129 26.1151 34.2697 26.9772 34.3467 27.2609C34.4342 27.5837 35.0016 28.2212 35.0016 27.4228C35.0016 24.8157 35.4182 25.2181 32.2453 25.2181C31.6826 25.2181 31.9552 25.3341 31.9241 25.5318L31.8318 27.6986H31.8324Z" fill="#ED3237"/>
<path fill-rule="evenodd" clip-rule="evenodd" d="M30.4545 26.1825V27.4228C31.2049 27.9253 31.1437 28.2897 31.1437 25.9072C31.1437 25.5349 31.0778 25.527 31.0061 25.218H30.5926C30.5568 25.6494 30.455 25.7074 30.455 26.1825H30.4545Z" fill="#ED3237"/>
<path fill-rule="evenodd" clip-rule="evenodd" d="M30.4544 28.5255C30.4544 30.0189 30.5135 29.5095 30.5921 30.455C31.3462 30.3922 31.1431 30.3817 31.1431 27.9744C30.7323 28.0087 30.4539 28.0736 30.4539 28.5255H30.4544Z" fill="#ED3237"/>
<path fill-rule="evenodd" clip-rule="evenodd" d="M35.5532 30.8679C35.5532 31.2365 35.752 31.2755 35.9666 31.4189C36.1333 31.17 36.2424 31.1769 36.2424 30.8679V29.9034H35.5532V30.8679Z" fill="#ED3237"/>
</g>
<defs>
<clipPath id="clip0_3_33">
<rect width="70.5554" height="70.5554" fill="white"/>
</clipPath>
</defs>
</svg>
