<svg width="97" height="56" viewBox="0 0 97 56" fill="none" xmlns="http://www.w3.org/2000/svg">
<path fill-rule="evenodd" clip-rule="evenodd" d="M0 22.872C0 29.9963 1.33294 35.9252 1.5884 42.5361C1.8292 48.7632 4.51524 55.2818 10.6262 55.2818C16.1456 55.2818 22.036 48.5798 26.5573 46.2415C39.6679 39.4601 48.8622 46.8619 52.7363 41.6047C55.5091 37.8418 53.1311 27.7448 53.1311 18.622C53.1311 9.03172 55.8441 6.12872 46.835 3.13465C37.1267 -0.0916591 15.3719 -2.94699 7.02222 5.98571C3.77635 9.4577 0.000611159 16.3937 0.000611159 22.8726L0 22.872Z" fill="#ED3237"/>
<path fill-rule="evenodd" clip-rule="evenodd" d="M54.1933 12.2458C54.1933 22.3758 51.9412 38.2799 62.6946 38.2799C70.8645 38.2799 80.3827 25.7292 88.4115 22.5548C91.7741 21.2256 96.1671 20.9444 96.1671 16.4964C96.1671 5.061 70.1483 4.80737 61.6324 4.80737C56.9839 4.80737 54.194 7.59731 54.194 12.2458H54.1933Z" fill="#ED3237"/>
<path d="M29.0787 29.9578H24.9848L24.3626 31.8409H20.9892L25.1977 20.2963H28.8986L33.0907 31.8409H29.701L29.0787 29.9578ZM28.2763 27.5015L27.0318 23.7679L25.8036 27.5015H28.2763Z" fill="#FEFEFE"/>
</svg>
