<svg width="97" height="56" viewBox="0 0 97 56" fill="none" xmlns="http://www.w3.org/2000/svg">
<path fill-rule="evenodd" clip-rule="evenodd" d="M0 22.872C0 29.9963 1.33294 35.9252 1.5884 42.5361C1.8292 48.7632 4.51524 55.2818 10.6262 55.2818C16.1456 55.2818 22.036 48.5798 26.5573 46.2415C39.6679 39.4601 48.8622 46.8619 52.7363 41.6047C55.5091 37.8418 53.1311 27.7448 53.1311 18.622C53.1311 9.03172 55.8441 6.12872 46.835 3.13465C37.1267 -0.0916591 15.3719 -2.94699 7.02222 5.98571C3.77635 9.4577 0.000611159 16.3937 0.000611159 22.8726L0 22.872Z" fill="#ED3237"/>
<path fill-rule="evenodd" clip-rule="evenodd" d="M54.1933 12.2458C54.1933 22.3758 51.9412 38.28 62.6945 38.28C70.8645 38.28 80.3827 25.7292 88.4115 22.5549C91.7741 21.2256 96.1671 20.9445 96.1671 16.4964C96.1671 5.06104 70.1482 4.8074 61.6323 4.8074C56.9839 4.8074 54.1939 7.59734 54.1939 12.2458H54.1933Z" fill="#ED3237"/>
<path d="M29.1442 25.913C29.821 26.0659 30.356 26.4043 30.749 26.9283C31.1529 27.4414 31.3549 28.0309 31.3549 28.6969C31.3549 29.6794 31.0165 30.449 30.3396 31.0058C29.6628 31.5626 28.713 31.8409 27.4903 31.8409H21.7753V20.2963H27.3102C28.4892 20.2963 29.4117 20.5583 30.0776 21.0823C30.7544 21.6063 31.0929 22.3432 31.0929 23.293C31.0929 23.9698 30.9127 24.5375 30.5525 24.996C30.2031 25.4436 29.7337 25.7493 29.1442 25.913ZM24.9848 24.8814H26.606C27.4139 24.8814 27.8178 24.5484 27.8178 23.8825C27.8178 23.1947 27.4139 22.8508 26.606 22.8508H24.9848V24.8814ZM26.8516 29.2536C27.6595 29.2536 28.0634 28.9152 28.0634 28.2384C28.0634 27.889 27.9543 27.6215 27.7359 27.436C27.5285 27.2504 27.2283 27.1576 26.8353 27.1576H24.9848V29.2536H26.8516Z" fill="#FEFEFE"/>
</svg>
