<svg width="97" height="56" viewBox="0 0 97 56" fill="none" xmlns="http://www.w3.org/2000/svg">
<path fill-rule="evenodd" clip-rule="evenodd" d="M0 22.872C0 29.9963 1.33294 35.9252 1.5884 42.5361C1.8292 48.7632 4.51524 55.2818 10.6262 55.2818C16.1456 55.2818 22.036 48.5798 26.5573 46.2415C39.6679 39.4601 48.8622 46.8619 52.7363 41.6047C55.5091 37.8418 53.1311 27.7448 53.1311 18.622C53.1311 9.03172 55.8441 6.12872 46.835 3.13465C37.1267 -0.0916591 15.3719 -2.94699 7.02222 5.98571C3.77635 9.4577 0.000611159 16.3937 0.000611159 22.8726L0 22.872Z" fill="#ED3237"/>
<path fill-rule="evenodd" clip-rule="evenodd" d="M54.1933 12.2458C54.1933 22.3758 51.9412 38.2799 62.6946 38.2799C70.8645 38.2799 80.3827 25.7292 88.4115 22.5548C91.7741 21.2256 96.1671 20.9444 96.1671 16.4964C96.1671 5.061 70.1483 4.80737 61.6324 4.80737C56.9839 4.80737 54.194 7.59731 54.194 12.2458H54.1933Z" fill="#ED3237"/>
<path d="M21.3823 26.0441C21.3823 24.9087 21.617 23.8989 22.0864 23.0146C22.5668 22.1194 23.2436 21.4262 24.117 20.9349C24.9903 20.4327 25.9947 20.1817 27.1301 20.1817C28.5711 20.1817 29.7829 20.5692 30.7654 21.3443C31.7479 22.1085 32.3811 23.1511 32.6649 24.472H29.2097C29.0023 24.0353 28.713 23.7024 28.3418 23.4731C27.9816 23.2439 27.5613 23.1292 27.0809 23.1292C26.3386 23.1292 25.7436 23.3967 25.296 23.9316C24.8593 24.4556 24.641 25.1598 24.641 26.0441C24.641 26.9392 24.8593 27.6543 25.296 28.1892C25.7436 28.7132 26.3386 28.9752 27.0809 28.9752C27.5613 28.9752 27.9816 28.8606 28.3418 28.6314C28.713 28.4021 29.0023 28.0691 29.2097 27.6325H32.6649C32.3811 28.9534 31.7479 30.0014 30.7654 30.7765C29.7829 31.5407 28.5711 31.9228 27.1301 31.9228C25.9947 31.9228 24.9903 31.6772 24.117 31.1859C23.2436 30.6837 22.5668 29.9905 22.0864 29.1063C21.617 28.2111 21.3823 27.1903 21.3823 26.0441Z" fill="#FEFEFE"/>
</svg>
