<svg width="92" height="106" viewBox="0 0 92 106" fill="none" xmlns="http://www.w3.org/2000/svg">
<path d="M43.4474 50.5054V56.9719H41.6496V54.3762H39.4574V56.9719H37.6597V50.5054H39.4574V52.9361H41.6496V50.5054H43.4474ZM46.274 50.5054V56.9719H44.4762V50.5054H46.274ZM53.59 50.5054L51.3611 56.9719H49.0588L46.8208 50.5054H48.747L50.2146 55.1742L51.673 50.5054H53.59ZM60.4369 54.6238H58.9601V56.1464H57.2357V54.6238H55.7498V53.0003H57.2357V51.4685H58.9601V53.0003H60.4369V54.6238Z" fill="#373435"/>
<path fill-rule="evenodd" clip-rule="evenodd" d="M60.1109 11.9863C65.9524 9.3706 58.0592 8.66038 58.1368 4.20837C62.2097 0.878005 72.2605 5.97338 71.1379 10.1181C66.6971 13.0792 62.0554 7.08874 64.3807 14.2677C62.4071 15.37 59.913 21.871 59.4684 24.7586C58.9991 27.8063 59.6811 31.6109 61.4977 33.9587C63.2268 36.193 64.0106 34.7021 64.1986 34.4957C66.0309 32.4875 62.2626 32.331 62.4731 26.2369C65.1569 27.4352 68.6654 30.828 70.4802 33.3167C71.3282 34.4796 71.6597 35.9426 73.8002 34.5563C76.1068 31.9236 65.021 24.0798 63.4619 22.8531C64.1923 18.6609 66.5639 14.8814 69.9795 13.9177C80.2559 11.0176 71.7113 0.288472 61.7121 0.00492214C56.3839 -0.145826 53.0307 2.97412 56.0425 8.04482C58.096 11.5026 55.745 16.9699 53.9957 20.1343C50.5254 26.4132 44.5457 24.3014 45.4968 27.3226C46.269 29.775 57.0205 28.5304 60.1118 11.9863H60.1109Z" fill="#ED3237"/>
<path fill-rule="evenodd" clip-rule="evenodd" d="M28.3465 81.7867C24.7968 95.2355 18.4793 88.8422 17.162 94.5119C15.8735 100.061 24.1435 104.935 29.9648 105.059C35.3855 105.175 38.3457 101.788 35.5649 97.0652C33.3638 93.327 35.7866 88.3707 37.4735 85.1332C41.0044 78.3549 46.5 81.1496 46.1671 78.0664C45.7965 74.6315 34.0956 77.1323 31.4692 93.0712C25.1606 95.9395 34.0916 95.8807 33.271 101.012C29.2932 103.872 19.2671 99.4336 20.4471 94.8506C23.6711 92.9959 25.5231 95.2055 27.508 93.9748C29.0218 91.6387 26.9983 93.0946 27.6556 90.8078C27.6704 90.7557 28.9257 88.6852 29.1936 88.1284C31.8088 82.6965 33.9466 76.9022 30.2928 71.4156C29.3457 69.9933 28.3699 69.4531 27.3887 70.4424C26.3339 72.0665 28.8647 74.5674 29.1564 78.2324C24.4078 76.1475 19.2088 66.4691 18.2742 71.3922C17.7022 74.4076 27.3918 80.8189 28.3465 81.7862V81.7867Z" fill="#ED3237"/>
<path fill-rule="evenodd" clip-rule="evenodd" d="M84.2351 31.9061C87.8445 32.4211 88.7974 37.6018 87.9759 39.885C84.5626 39.273 87.416 37.7207 82.702 38.4363C80.5296 38.766 78.9324 39.4704 77.0467 40.2757C67.6671 44.2827 71.8638 52.721 74.1044 48.2187C74.3938 47.6368 74.401 47.0316 74.7334 46.3555C75.2799 45.2442 75.6523 45.1454 76.14 44.8256C76.5088 47.8921 77.0808 49.9999 76.9628 53.3751C76.8399 56.8796 75.0035 59.9107 78.8902 59.5688C81.3874 55.7458 79.6718 47.5058 78.8624 42.864C86.5968 40.2955 83.2009 42.8788 87.6489 43.0004C94.3365 43.183 91.3207 30.2497 85.7892 28.8593C81.064 27.6717 82.1255 32.2345 79.7158 34.1628C72.2609 40.1272 67.7685 33.1901 66.7151 36.3105C66.165 37.94 68.0696 38.8607 69.4734 39.3793C73.6441 40.9209 79.5524 38.4587 82.3561 35.9646C83.9528 34.5442 83.8847 34.2005 84.2355 31.9056L84.2351 31.9061Z" fill="#ED3237"/>
<path fill-rule="evenodd" clip-rule="evenodd" d="M15.7443 35.9121C13.7164 35.3253 11.679 34.5141 10.8382 32.7608C9.6843 30.3542 9.94362 28.3482 6.57377 28.6174C2.90108 28.9113 -0.439601 34.4701 0.1773 39.1523C0.498985 41.597 1.93154 43.3598 4.7132 42.7712C7.55364 42.17 7.07268 40.5149 11.3614 42.2844C19.696 45.7229 15.9085 49.13 18.7561 49.3601C21.575 49.588 19.9392 45.0095 18.8436 43.5792C16.8386 40.9613 13.0483 39.1608 9.6852 38.5394C4.51445 37.5843 6.75054 38.9154 3.42242 39.7894C2.97107 36.3958 4.1968 32.5867 6.9668 31.758C8.14182 33.2875 7.21221 33.2655 7.78828 34.6267C8.14721 35.4756 8.67797 35.6295 9.71571 36.3962C11.3681 37.6175 12.7755 38.2164 14.9838 39.0796C17.036 39.8814 18.9127 40.1963 21.2161 39.6319C22.956 39.2053 26.1257 37.8804 24.4585 35.883C22.9344 34.5617 21.9698 36.3514 19.2747 36.7682C19.9132 35.2077 20.6719 34.4123 21.501 33.2139C23.6805 30.0635 31.6585 25.0601 27.036 24.4692C25.5357 24.2772 21.2614 28.5205 20.5956 29.3716C19.8046 30.3829 19.0069 31.3013 18.1998 32.4144C17.267 33.7016 16.5913 34.9291 15.7447 35.9126L15.7443 35.9121Z" fill="#ED3237"/>
<path fill-rule="evenodd" clip-rule="evenodd" d="M13.0079 62.175C10.9096 62.7691 9.04451 64.0527 6.81424 63.1563C4.65621 62.289 3.18148 60.8161 1.1253 63.4102C-2.87312 68.4549 4.71588 79.9198 9.31953 75.3601C10.9387 73.7566 10.2074 72.1612 12.4583 70.546C19.2729 65.6571 22.7034 70.9014 24.4257 69.1427C26.5555 66.968 20.88 63.6529 14.9506 65.9509C5.47187 69.6241 8.47292 71.0521 6.9107 73.2689C3.39729 72.1015 1.41019 63.6188 4.96623 65.7401C5.68947 66.1717 5.45078 66.2744 6.54909 66.9061C10.1576 66.4458 13.1717 65.7513 16.0009 64.0688C23.1798 59.7994 19.6956 52.4926 17.4599 56.7513C16.7659 58.0734 16.9094 58.7392 16.0337 59.8658C13.9694 55.5524 15.9596 48.5265 14.8968 45.8745C11.9742 45.1248 11.7521 46.5663 11.7912 52.529C11.8154 56.2631 12.8213 58.938 13.0079 62.175V62.175Z" fill="#ED3237"/>
<path fill-rule="evenodd" clip-rule="evenodd" d="M25.1782 13.8401C25.3253 11.2213 30.3727 9.1337 33.166 10.4128C32.6586 12.0168 32.1296 12.0737 31.2305 13.2407C31.2565 15.5589 33.0512 20.8378 34.2446 22.7531C38.9635 30.3273 45.7786 25.9986 41.2719 24.0842C39.6589 23.3991 39.2395 23.9057 38.1304 22.1882C40.4252 21.9199 42.4245 21.3766 44.9854 21.3115C47.8617 21.238 50.0745 22.1465 51.5097 20.6354C51.651 17.5716 47.3655 18.0242 44.5731 18.1763C41.3616 18.3509 39.1058 18.9561 36.1428 19.5057C33.4235 11.512 36.4766 14.549 36.2563 10.3343C35.927 4.02486 23.0758 7.0322 22.0474 12.919C21.2475 17.5011 25.8206 16.2395 27.6301 18.9148C28.8755 20.7561 30.7949 25.1377 29.5821 27.9072C27.0665 33.6518 31.4167 32.5503 32.7232 28.5466C34.267 23.8146 31.5437 19.2307 29.1936 15.6598C27.6978 13.3874 27.8427 14.9151 25.1782 13.841V13.8401Z" fill="#ED3237"/>
<path fill-rule="evenodd" clip-rule="evenodd" d="M88.1487 65.3107C88.5493 68.4369 87.4793 72.9127 84.38 73.3129C83.5194 71.0983 85.3917 69.3777 76.668 66.0079C73.7841 64.8939 64.3534 65.1357 67.0866 69.332C68.7273 70.2553 69.7435 68.7101 72.3614 68.279C71.452 70.4635 69.2921 72.9042 67.9668 74.2407C66.3889 75.8312 62.29 77.93 63.7943 79.6972C65.5611 80.8777 66.794 79.5066 67.7726 78.6299C73.1156 73.8436 74.5531 70.5478 75.9318 69.1731C82.4301 71.1961 79.3905 71.7735 81.815 75.0703C85.8013 80.4905 94.0319 69.8896 90.7549 64.0446C88.4609 59.9519 85.5792 64.1267 81.8863 63.3339C72.2259 61.2593 75.5491 54.9207 72.3067 55.6628C70.3451 56.1119 71.229 58.7935 71.967 60.2768C73.78 63.9194 79.1751 66.3219 83.0636 66.6625C87.0378 67.0111 85.0112 65.8863 88.1482 65.3116L88.1487 65.3107Z" fill="#ED3237"/>
<path fill-rule="evenodd" clip-rule="evenodd" d="M66.4248 91.4C65.3615 95.0866 56.9649 96.7121 58.9336 93.2754C59.2441 92.7334 59.5779 92.6374 60.1809 91.8181C59.7686 88.1979 59.0579 85.2494 57.3534 82.3968C56.2017 80.469 52.7027 76.8506 49.4082 78.2611C47.3875 80.9356 51.2311 80.8212 52.9822 82.2053C49.9484 84.1031 42.4025 82.7486 40.2552 83.3166C38.7208 89.1361 51.5007 85.4329 55.4489 85.3925C55.8931 86.8789 56.7603 88.4582 56.6993 90.1366C56.6105 92.5921 55.1802 92.2206 55.3188 94.7434C55.6692 101.125 68.6461 97.8674 69.5349 92.1102C70.1899 87.8668 65.9362 88.4819 64.0209 86.1651C58.1848 79.1059 65.4602 73.9298 61.6897 73.4076C58.777 73.0038 55.9626 81.5448 62.4771 89.4071C64.5342 91.8899 64.1883 89.8988 66.4252 91.4H66.4248Z" fill="#ED3237"/>
<path fill-rule="evenodd" clip-rule="evenodd" d="M51.2692 63.2653C43.8664 66.1026 48.1977 77.1256 55.924 74.3063C62.8198 71.7898 59.2104 60.2216 51.2692 63.2653Z" fill="#ED3237"/>
<path fill-rule="evenodd" clip-rule="evenodd" d="M30.9268 33.641C23.1547 36.1634 27.1904 47.1814 34.8337 44.9086C42.1741 42.7254 38.7172 31.1124 30.9268 33.641Z" fill="#ED3237"/>
<path fill-rule="evenodd" clip-rule="evenodd" d="M59.8529 39.1846C52.162 42.6828 57.8586 52.9951 64.9828 49.9317C71.8809 46.9661 67.3661 35.7668 59.8529 39.1846V39.1846Z" fill="#ED3237"/>
<path fill-rule="evenodd" clip-rule="evenodd" d="M26.4111 53.7735C24.7232 54.4425 23.8501 54.9584 23.06 56.4996C20.6418 61.2176 25.3581 66.9896 30.9416 64.7961C37.4762 62.2289 34.0449 50.7483 26.4111 53.7735Z" fill="#ED3237"/>
<path fill-rule="evenodd" clip-rule="evenodd" d="M52.4272 66.112C49.1166 67.1529 50.5294 72.408 54.3744 71.5035C58.1866 70.6071 56.3812 64.8688 52.4272 66.112Z" fill="#FAFAFA"/>
<path fill-rule="evenodd" clip-rule="evenodd" d="M27.5762 56.662C23.296 58.3574 26.4766 63.0441 29.7217 61.9283C33.1202 60.76 31.0129 55.3007 27.5762 56.662V56.662Z" fill="#FAFAFA"/>
<path fill-rule="evenodd" clip-rule="evenodd" d="M65.1686 45.8395C64.4269 45.2459 65.1888 45.3334 63.8087 46.2577C62.7158 44.6255 61.8593 44.4761 60.6376 42.4185C58.4885 43.515 59.3082 45.9584 60.7305 46.8526C62.8575 48.19 63.9657 46.7898 65.1686 45.84V45.8395Z" fill="#FAFAFA"/>
<path fill-rule="evenodd" clip-rule="evenodd" d="M60.6376 42.4185C61.8597 44.4761 62.7158 44.6255 63.8087 46.2577C65.1883 45.3339 64.4269 45.246 65.1686 45.8395C65.4885 41.3368 61.6116 41.0385 60.6376 42.4185V42.4185Z" fill="#FAFAFA"/>
<path fill-rule="evenodd" clip-rule="evenodd" d="M31.7581 41.8954C32.6074 41.9093 30.6499 43.0866 32.9444 41.6971C33.8381 41.156 33.6429 40.8271 33.559 40.5046C33.5527 40.4794 32.8681 39.6638 32.8564 39.6544C31.7325 38.7265 32.4459 39.2371 31.209 38.7337L30.9151 37.2899C29.9487 37.8853 30.5517 36.5465 29.9532 38.3892C29.7468 39.0253 29.81 39.2824 29.9424 39.9141C30.2089 41.1897 30.6733 41.3234 31.7581 41.8945V41.8954Z" fill="#FAFAFA"/>
<path fill-rule="evenodd" clip-rule="evenodd" d="M35.6565 38.3672C34.6098 37.0293 34.0539 36.1051 32.043 36.6004C32.3387 38.2196 32.3984 38.2626 33.5891 39.3242C34.3796 40.0285 33.9256 40.1587 34.7242 39.854C36.2622 39.2676 35.3299 39.7158 35.6565 38.3667V38.3672Z" fill="#FAFAFA"/>
<path fill-rule="evenodd" clip-rule="evenodd" d="M30.9151 37.2908L31.209 38.7346C32.4454 39.238 31.7325 38.7274 32.8564 39.6553C32.8676 39.6647 33.5523 40.4803 33.559 40.5055C33.6429 40.828 33.8381 41.1565 32.9443 41.698C30.6499 43.0875 32.6074 41.9102 31.7581 41.8963C34.5245 42.3369 35.9288 41.1251 35.6565 38.3681C35.3298 39.7172 36.2622 39.2685 34.7242 39.8554C33.926 40.1596 34.38 40.0294 33.5891 39.3255C32.3983 38.264 32.3387 38.2209 32.043 36.6017L31.1004 36.8296C29.8271 36.9463 31.0421 36.8059 30.9151 37.2917V37.2908Z" fill="#FAFAFA"/>
</svg>
