<svg width="53" height="53" viewBox="0 0 53 53" fill="none" xmlns="http://www.w3.org/2000/svg">
<g clip-path="url(#clip0_3_73)">
<path fill-rule="evenodd" clip-rule="evenodd" d="M20.8283 31.2421L21.4307 31.2778C21.5389 30.523 21.8813 29.7946 22.5172 29.4022C22.3592 30.309 21.8971 30.5394 21.5942 31.4733L21.5776 31.9129C21.8603 32.6979 23.7221 34.9307 24.3519 35.7476C25.1191 36.7429 26.3868 38.4536 26.991 39.51C27.9683 39.3087 28.3385 38.93 29.0512 38.4891C29.0907 38.4504 29.1426 38.3956 29.1711 38.3744C29.2019 38.3514 29.2821 38.2896 29.3138 38.2667C30.0005 37.7805 28.4823 38.5871 29.6858 38.0857L29.692 37.997L30.6484 37.4225C31.1941 36.8192 31.4337 36.6537 32.0596 36.23L33.2142 35.3632C33.3977 34.9394 34.7054 33.6587 35.1431 33.4944C35.592 32.8441 35.9793 32.0797 36.6104 31.5693L36.9144 30.9786C35.4183 29.3487 31.0021 24.355 29.811 23.4459C28.2628 24.0248 27.429 24.6511 26.2169 25.509C26.2169 25.8544 26.3003 25.7775 25.9541 25.7235L25.6462 25.887L25.3547 26.1751C25.0276 26.5983 24.5771 27.0832 24.1115 27.4712L23.8342 27.7721C23.8915 28.1121 23.972 28.0374 23.6428 28.0374L23.3713 28.3163L23.1099 28.6672C23.2089 29.0302 23.3043 28.9637 22.9616 28.9637C22.7245 29.4082 22.882 29.2546 22.5175 29.4024C22.5927 29.0689 22.5823 29.0824 22.759 28.8615L23.1796 28.2098L23.4534 27.9738C24.1789 26.7335 24.4724 26.2607 25.7832 25.48C26.8502 24.529 28.2056 23.9603 29.5813 22.9695C29.9257 18.7529 30.8008 16.3976 33.2415 14.4941C36.5337 11.9266 42.8556 12.7527 43.8334 19.0089C44.2261 21.521 43.7904 22.0129 43.2146 24.0437C42.7649 25.6297 44.5093 26.3552 42.6344 28.471C41.8046 29.4072 40.6173 30.6175 39.3387 31.1206C39.2454 33.496 39.7644 34.5401 40.2925 36.5157C40.6543 37.8704 41.2349 40.2554 40.2718 41.2767C39.7989 42.4645 39.9143 42.3362 38.7365 42.8221C37.1211 44.3156 33.6779 43.1501 32.3801 42.207C31.757 41.9445 31.9821 42.0191 31.7859 41.7779C31.5037 41.5324 31.3018 41.4301 31.0888 41.1524C30.7139 40.6632 30.8704 41.0064 30.7226 40.3651C31.228 40.5216 31.6067 40.9352 32.0069 41.4913C32.4248 41.6939 32.4334 41.7228 32.6286 41.9188C34.8875 43.0644 36.3855 43.592 38.9218 42.3977L39.8718 41.4784C41.1887 38.1444 39.5564 36.8601 38.8553 31.3276L38.0491 30.7361C37.0753 31.0929 37.9319 30.8361 37.0928 31.4841L36.8019 31.819C36.8928 32.1617 36.9759 32.0875 36.6482 32.1065L36.4684 32.3904C36.5046 32.7301 36.5857 32.6514 36.2539 32.6514C34.9809 34.0926 34.2401 34.7625 32.8818 36.0735C32.8818 36.4152 32.971 36.3473 32.6423 36.3075L32.3594 36.4894L32.0634 36.642C32.0407 36.9706 32.1152 36.8806 31.761 36.7991C31.7657 37.1724 31.8434 37.0369 31.4142 37.1061C31.1083 37.6292 30.8331 37.8207 30.3059 38.0889L30.0907 38.3722L30.075 38.4546C30.3334 39.6322 30.8244 39.6102 30.5626 40.5548L29.7786 38.876C29.2059 38.8226 29.5861 38.7668 29.0691 38.9896C24.6794 41.5134 27.1682 40.1376 23.1244 41.6823C21.9271 42.1395 21.4691 42.8749 19.9854 42.4185C16.8275 41.4467 14.3658 39.1987 12.6167 36.7287C9.67625 32.5758 4.86255 22.1166 6.67625 17.4508C7.30632 15.8302 9.23887 13.3473 10.9241 13.0091C12.2279 12.7476 13.2485 13.387 14.2146 13.8554C15.7808 14.6148 17.4673 15.1648 15.9661 17.5978C13.9134 20.9243 13.781 20.2186 11.8135 20.0802L10.9946 20.9095C12.1554 25.4691 19.4115 27.1973 20.8285 31.2418L20.8283 31.2421ZM23.0576 2.4516C15.3619 3.65323 11.4116 6.89642 7.72387 10.9499C4.23465 14.7853 1.48301 22.0609 2.46195 29.2771C4.1013 41.3649 15.151 51.8504 29.5061 49.8575C41.4858 48.1945 51.6192 37.3156 49.9747 23.1887C48.4174 9.81175 35.5331 0.503383 23.0576 2.4516V2.4516Z" fill="#ED3237"/>
<path fill-rule="evenodd" clip-rule="evenodd" d="M30.0905 38.3724C29.973 37.932 30.1177 38.044 29.6921 37.997L29.6859 38.0857C29.6341 38.1339 29.5889 38.1776 29.5743 38.2661C29.5589 38.3614 29.4308 38.4923 29.3619 38.5249L30.0905 38.3726V38.3724ZM30.0748 38.4548L29.7785 38.8761L30.5624 40.555C30.8242 39.6104 30.3332 39.6322 30.0748 38.4548ZM31.7857 41.778L32.077 41.939L32.3686 41.8243C32.3947 41.7146 32.1532 41.5988 32.1432 41.6584C32.1332 41.7173 32.0574 41.5423 32.0067 41.4911C31.6065 40.9349 31.2278 40.5213 30.7224 40.365C30.8702 41.0062 30.7137 40.663 31.0886 41.1522C31.3016 41.4301 31.5035 41.5323 31.7857 41.7778V41.778ZM38.7364 42.8221C38.7364 42.3093 38.6206 42.4229 39.1345 42.548L38.9216 42.3979C36.3855 43.5922 34.8874 43.0646 32.6284 41.919C32.2801 41.8935 32.3884 41.8243 32.3801 42.207C33.6779 43.1503 37.1211 44.3156 38.7364 42.8221ZM40.2718 41.2767C41.2347 40.2553 40.6543 37.8702 40.2925 36.5157C39.7644 34.5402 39.2453 33.496 39.3387 31.1206C40.6173 30.6174 41.8046 29.4071 42.6344 28.471C44.5093 26.3552 42.7649 25.6297 43.2146 24.0437C43.7903 22.0129 44.2261 21.5209 43.8333 19.0089C42.8554 12.7527 36.5337 11.9265 33.2415 14.4941C30.8007 16.3976 29.9256 18.7527 29.5813 22.9695C28.2056 23.9603 26.8501 24.529 25.7832 25.48C25.7018 25.8184 25.6218 25.7565 25.9542 25.7235C25.917 25.3698 25.8479 25.4611 26.2171 25.509C27.4292 24.6511 28.2631 24.0248 29.8111 23.4459C31.0021 24.3552 35.4182 29.3487 36.9146 30.9786L36.6105 31.5693L36.4684 32.3906C36.403 32.0244 36.3068 32.089 36.6482 32.1067L36.8019 31.8192C36.7031 31.3635 36.6174 31.4843 37.0928 31.4843C37.9319 30.8362 37.0751 31.0929 38.049 30.7362L38.8553 31.3278C39.5564 36.8602 41.1887 38.1446 39.8717 41.4786C39.5722 42.1707 39.6347 42.0013 39.1922 42.2153C39.5919 42.5727 39.3687 42.5675 39.9092 41.7606C39.9426 41.7108 39.9836 41.6464 40.0158 41.6001C40.0499 41.5513 40.1109 41.4801 40.1401 41.4399C40.1701 41.3982 40.2266 41.3299 40.272 41.2769L40.2718 41.2767ZM35.1432 33.4944C34.7053 33.6587 33.3979 34.9395 33.2143 35.3632C32.2806 36.6044 32.1901 35.7195 32.6421 36.3078L32.8816 36.0738C34.2399 34.7628 34.9809 34.0928 36.2537 32.6518C35.9081 32.1202 36.3005 32.3874 35.8593 32.8553C35.8175 32.9001 35.6879 33.0845 35.6366 33.1337C35.2691 33.4869 35.6519 33.1828 35.1431 33.4945L35.1432 33.4944ZM30.6486 37.4225C30.5992 37.4718 30.5064 37.4681 30.4905 37.5598C30.4732 37.6598 30.2827 37.7707 30.2673 37.8063C30.0622 38.2829 29.859 37.5123 30.3057 38.0892C30.8329 37.8212 31.1081 37.6295 31.414 37.1064C31.414 36.6175 31.2893 36.7094 31.7608 36.7994L32.0632 36.6424L32.3592 36.4897L32.0597 36.23C31.4338 36.6537 31.1943 36.8191 30.6486 37.4225V37.4225ZM23.8341 27.7719L24.1115 27.471C24.577 27.083 25.0278 26.5981 25.3546 26.1749L25.6462 25.8869C25.4243 25.657 24.7857 26.4306 24.577 26.6578C24.2978 26.9621 23.8381 27.513 23.8341 27.7719ZM23.1796 28.2095L23.1097 28.667C23.0981 28.2951 23.0114 28.4125 23.3711 28.3161L23.6426 28.0373L23.4533 27.9734L23.1794 28.2095H23.1796ZM22.9615 28.9634L22.759 28.8612C22.5823 29.082 22.5925 29.0685 22.5175 29.4021C22.882 29.2542 22.7245 29.4079 22.9615 28.9634ZM21.4309 31.2776L21.5944 31.473C21.8974 30.5392 22.3593 30.3087 22.5173 29.4019C21.8814 29.7943 21.5389 30.5227 21.4309 31.2775V31.2776ZM20.8285 31.242C19.4115 27.1975 12.1553 25.4693 10.9945 20.9096L11.8135 20.0804C13.781 20.2187 13.9135 20.9243 15.9661 17.5979C17.4673 15.165 15.7807 14.6151 14.2146 13.8555C13.2483 13.3873 12.2278 12.7477 10.924 13.0093C9.23901 13.3473 7.3063 15.8304 6.67623 17.4509C4.86253 22.1168 9.67623 32.5759 12.6167 36.7289C14.3657 39.1988 16.8275 41.4469 19.9854 42.4187C21.469 42.8751 21.9271 42.1397 23.1244 41.6824C27.1682 40.1376 24.6792 41.5136 29.069 38.9898C29.069 38.5989 28.979 38.6934 29.3804 38.7555L29.0514 38.4888C28.3386 38.9298 27.9684 39.3085 26.9911 39.5097C26.3869 38.4533 25.1193 36.7426 24.352 35.7473C23.7223 34.9304 21.8604 32.6976 21.5777 31.9125C21.556 31.8887 21.2677 31.6273 21.2542 31.6152L20.9801 31.3728C20.9463 31.3433 20.8788 31.286 20.8286 31.242H20.8285ZM38.8705 25.586C39.532 25.2076 39.9067 24.0277 41.3779 24.2393C42.452 24.3934 43.0978 25.3128 42.9836 26.5826C42.8209 28.393 40.5063 29.898 39.1928 30.7102C37.8712 30.2723 35.4391 28.288 35.1747 26.7621C34.7177 24.1223 38.045 23.1989 38.8705 25.5862V25.586Z" fill="#FEFEFE"/>
<path fill-rule="evenodd" clip-rule="evenodd" d="M50.4476 29.1478C48.9374 41.4568 37.7023 51.9938 23.4186 50.3998C10.9651 49.0101 0.12169 37.5094 1.99456 23.0211C3.58324 10.7326 14.7658 0.309569 29.1039 1.95392C41.5531 3.38158 52.2013 14.8533 50.4476 29.1479V29.1478ZM22.7867 0.254396C2.48862 3.01704 -5.17506 25.4085 3.57107 39.3671C5.3421 42.1934 7.26315 44.6435 9.54373 46.431C17.8867 52.9707 29.4254 54.5757 39.5489 48.7256C43.3461 46.5314 47.1524 42.5359 49.1548 38.8805C49.8532 37.6059 50.6896 35.78 51.1593 34.2487C52.2643 30.6466 52.715 26.843 52.19 22.7692C50.4851 9.54676 38.3343 -1.86217 22.7865 0.25423L22.7867 0.254396Z" fill="#ED3237"/>
<path fill-rule="evenodd" clip-rule="evenodd" d="M23.0576 2.4516C35.5331 0.503551 48.4174 9.81175 49.9747 23.1887C51.6192 37.3156 41.4858 48.1945 29.5061 49.8575C15.151 51.8504 4.1013 41.3649 2.46195 29.2771C1.48301 22.0609 4.23465 14.7853 7.72387 10.9499C11.4116 6.89643 15.3619 3.65323 23.0576 2.4516V2.4516ZM50.4476 29.1477C52.2015 14.8531 41.5531 3.38137 29.1039 1.95371C14.766 0.309363 3.58324 10.7324 1.99457 23.0209C0.121526 37.5091 10.9651 49.0099 23.4186 50.3996C37.7024 51.9937 48.9374 41.4568 50.4476 29.1476V29.1477Z" fill="#FEFEFE"/>
<path fill-rule="evenodd" clip-rule="evenodd" d="M38.8705 25.5864C38.0451 23.1991 34.7179 24.1225 35.1747 26.7623C35.4391 28.2882 37.8712 30.2726 39.1929 30.7104C40.5063 29.8982 42.8209 28.3932 42.9836 26.5828C43.0978 25.3132 42.452 24.3936 41.3779 24.2396C39.9066 24.028 39.5321 25.2078 38.8705 25.5862V25.5864Z" fill="#00973A"/>
<path fill-rule="evenodd" clip-rule="evenodd" d="M36.6104 31.5694C35.9793 32.0799 35.5919 32.8442 35.1431 33.4944C35.652 33.1829 35.2689 33.4868 35.6366 33.1335C35.688 33.0844 35.8175 32.9 35.8593 32.8552C36.3004 32.3875 35.908 32.1201 36.2537 32.6517C36.5856 32.6517 36.5046 32.7303 36.4682 32.3906L36.6481 32.1068C36.9759 32.0879 36.8926 32.1619 36.8018 31.8192L37.0926 31.4844C36.6172 31.4844 36.7027 31.3635 36.8018 31.8192L36.6481 32.1068C36.3067 32.0889 36.4029 32.0244 36.4682 32.3906L36.6104 31.5694V31.5694Z" fill="#A3DBBB"/>
<path fill-rule="evenodd" clip-rule="evenodd" d="M25.6462 25.8869L25.3546 26.1749L25.6462 25.8869L25.954 25.7234C26.3002 25.7775 26.2169 25.8542 26.2169 25.5088C25.8477 25.461 25.9169 25.3697 25.954 25.7234C25.6215 25.7564 25.7015 25.8182 25.783 25.4798C24.4722 26.2606 24.1787 26.7333 23.4532 27.9736L23.6426 28.0375C23.9718 28.0375 23.8913 28.1121 23.834 27.7721L24.1113 27.4712L23.834 27.7721C23.838 27.5132 24.2977 26.9623 24.5769 26.658C24.7856 26.4306 25.4241 25.6572 25.646 25.8871L25.6462 25.8869Z" fill="#A3DBBB"/>
<path fill-rule="evenodd" clip-rule="evenodd" d="M29.6921 37.997C30.1177 38.0441 29.973 37.9322 30.0905 38.3724L29.3619 38.5248C29.4308 38.4921 29.5589 38.3613 29.5743 38.2659C29.589 38.1776 29.634 38.1337 29.686 38.0856C28.4825 38.5869 30.0005 37.7805 29.3139 38.2666C29.2823 38.2892 29.2021 38.3513 29.1712 38.3743C29.1429 38.3954 29.0909 38.4501 29.0514 38.4889L29.3804 38.7556C28.9791 38.6935 29.0691 38.5991 29.0691 38.99C29.5861 38.7671 29.2059 38.823 29.7786 38.8763L30.075 38.4549L30.0907 38.3726L30.3059 38.0892C29.8591 37.5122 30.0623 38.2827 30.2675 37.8064C30.2829 37.7707 30.4734 37.6598 30.4907 37.5598C30.5067 37.4682 30.5994 37.472 30.6487 37.4225L29.6923 37.997H29.6921Z" fill="#A3DBBB"/>
<path fill-rule="evenodd" clip-rule="evenodd" d="M39.8716 41.4786L38.9216 42.3979L39.1345 42.548C38.6204 42.4229 38.7364 42.3095 38.7364 42.8221C39.9144 42.3362 39.7989 42.4645 40.2718 41.2767C40.2264 41.3297 40.1699 41.3981 40.1399 41.4398C40.1108 41.4799 40.0498 41.5511 40.0156 41.5999C39.9834 41.6464 39.9424 41.7108 39.9091 41.7605C39.3685 42.5674 39.5917 42.5725 39.192 42.2152C39.6344 42.0011 39.572 42.1705 39.8716 41.4784V41.4786Z" fill="#A3DBBB"/>
<path fill-rule="evenodd" clip-rule="evenodd" d="M33.2142 35.3633L32.0595 36.23L32.3591 36.4897L32.063 36.6424L31.7607 36.7994C31.2893 36.7094 31.4138 36.6176 31.4138 37.1065C31.843 37.0373 31.7652 37.1728 31.7607 36.7994C32.115 36.8811 32.0404 36.971 32.063 36.6424L32.3591 36.4897L32.6419 36.3079C32.9706 36.3476 32.8815 36.4156 32.8815 36.0739L32.6419 36.3079C32.1899 35.7195 32.2804 36.6044 33.2142 35.3633Z" fill="#A3DBBB"/>
<path fill-rule="evenodd" clip-rule="evenodd" d="M21.5776 31.9127L21.5942 31.4732L21.4307 31.2778L20.8283 31.2421C20.8786 31.2863 20.9462 31.3435 20.9798 31.373L21.2539 31.6153C21.2674 31.6275 21.5557 31.8889 21.5774 31.9127H21.5776Z" fill="#A3DBBB"/>
<path fill-rule="evenodd" clip-rule="evenodd" d="M23.1794 28.2096L22.7589 28.8614L22.9614 28.9636C23.3041 28.9636 23.2087 29.0301 23.1097 28.667L23.3711 28.3162C23.0114 28.4123 23.0981 28.295 23.1097 28.667L23.1796 28.2095L23.1794 28.2096Z" fill="#A3DBBB"/>
<path fill-rule="evenodd" clip-rule="evenodd" d="M31.7857 41.778C31.9819 42.019 31.757 41.9445 32.3799 42.207C32.3883 41.8243 32.2799 41.8935 32.6283 41.919C32.4331 41.723 32.4244 41.6941 32.0065 41.4915C32.0572 41.5426 32.1331 41.7176 32.1431 41.6588C32.1531 41.5991 32.3946 41.715 32.3684 41.8247L32.0769 41.9393L31.7855 41.7783L31.7857 41.778Z" fill="#A3DBBB"/>
</g>
<defs>
<clipPath id="clip0_3_73">
<rect width="52.4088" height="52.3385" fill="white"/>
</clipPath>
</defs>
</svg>
