<svg width="73" height="108" viewBox="0 0 73 108" fill="none" xmlns="http://www.w3.org/2000/svg">
<path fill-rule="evenodd" clip-rule="evenodd" d="M61.7919 96.6863L57.1956 92.1368C54.6931 94.1802 54.3529 95.0115 50.883 96.9879C30.5542 108.568 6.07247 93.2326 6.57216 71.064C6.85197 58.6536 23.9511 30.5075 31.711 18.3341C32.4905 17.1118 35.4099 12.2911 36.1427 11.6513C40.3189 17.6303 45.7241 26.6521 49.5551 33.1466C54.8053 42.0465 57.0519 47.0464 61.4328 56.1967L67.4707 53.6998C66.6466 51.3283 65.2638 48.7771 64.1664 46.4894C58.0076 33.6518 48.4297 18.2305 40.5469 6.38324C39.183 4.3332 37.6224 1.86319 36.1645 -0.000488281C35.2256 0.729748 26.6364 14.0269 25.3923 16.0322C17.4079 28.9007 -0.236101 57.2367 0.00307889 71.9237C0.447416 99.2345 29.8407 116.389 54.2148 102.646C56.7416 101.221 60.3705 98.4824 61.7924 96.6853L61.7919 96.6863Z" fill="#ED3237"/>
<path fill-rule="evenodd" clip-rule="evenodd" d="M46.045 71.389L45.978 77.9291C54.683 77.9982 63.3686 77.9515 72.0725 77.952L72.165 71.3854C63.4509 71.3778 54.7607 71.3174 46.045 71.389V71.389Z" fill="#ED3237"/>
<path fill-rule="evenodd" clip-rule="evenodd" d="M36.1163 94.2945L36.1173 87.8732C31.3169 87.113 28.494 86.9449 24.5092 82.9631C19.9815 78.439 20.5238 75.3164 19.5951 71.3819L13.222 71.3839C12.767 74.0479 14.1244 78.5776 15.1126 80.7115C17.4892 85.8455 21.4232 89.9618 26.61 92.2957C28.9637 93.3545 33.1796 94.6758 36.1158 94.294L36.1163 94.2945Z" fill="#ED3237"/>
</svg>
