<svg width="95" height="95" viewBox="0 0 95 95" fill="none" xmlns="http://www.w3.org/2000/svg">
<g clip-path="url(#clip0_3_107)">
<path fill-rule="evenodd" clip-rule="evenodd" d="M77.758 76.4188C77.5142 76.7919 77.554 76.6806 77.2741 77.0258L75.4521 79.3832C74.9857 79.7561 74.9464 79.7266 74.5931 80.2209L71.061 83.6113C70.1293 83.9854 68.2201 85.6015 65.6105 86.7742C63.4737 87.7345 61.548 88.3649 59.1342 88.8995C54.1965 89.9934 48.5291 90.0734 43.4459 89.2827C33.5072 87.737 26.8986 84.5561 19.2237 79.1359C18.4224 78.7163 18.7656 78.8697 18.1032 78.2873C17.7052 77.9373 17.9404 78.1966 17.6008 77.9355C17.0761 77.5322 17.458 77.902 17.1591 77.4753C13.7773 74.4021 11.3457 71.7223 8.72788 66.4497C3.23905 55.3945 2.78925 46.5773 11.7975 38.2204C12.2806 37.7722 12.6669 37.5106 13.1459 37.0415C14.7638 35.4576 15.5864 35.1206 17.0016 33.7628C18.7849 32.0512 20.5909 31.0822 22.4392 29.5802C22.4392 29.2426 22.3541 29.3112 22.6843 29.3618L23.2542 28.881L23.5163 28.6979C25.1639 27.8384 34.1005 20.7327 36.0666 19.4315C37.157 18.71 38.1048 17.8111 39.1927 17.0964L42.3956 14.8408C54.5162 6.47965 67.2507 -1.23915 80.0616 11.4966C92.8728 24.2326 91.3456 46.5938 85.3508 62.4103C84.3252 65.1168 83.1488 67.413 81.8768 69.8614C79.8904 73.6849 78.9517 74.316 77.7582 76.419L77.758 76.4188ZM21.3712 24.5942C21.3712 24.9239 21.438 24.8155 21.0577 24.7906L20.5025 25.2861L20.2006 25.4019L19.8932 25.5167L19.3431 26.0155L19.0807 26.2304L12.5569 31.1978C11.4399 32.1764 10.4887 33.1001 9.49745 34.0152C3.78486 39.2869 -0.504154 45.2548 0.0474973 53.7416C0.61896 62.5363 5.46293 71.7884 10.8278 77.9983C12.2631 79.6596 13.7778 80.7995 15.4328 82.2177C30.385 95.0301 61.8769 100.924 77.5154 83.9829C92.1159 68.1663 98.8866 42.0368 91.882 21.9228C90.1097 16.8338 86.6258 10.9282 82.7543 7.54486C79.162 4.40537 74.1359 0.422918 67.0003 0.0386415C54.3679 -0.641525 44.2368 7.75109 34.7474 14.5416L21.3712 24.594V24.5942Z" fill="#ED3237"/>
<path fill-rule="evenodd" clip-rule="evenodd" d="M43.5782 75.7736C42.896 75.5021 43.0103 75.4722 42.5455 75.0523C42.2016 74.7417 41.9316 74.6317 41.5938 74.3186C41.417 74.1547 40.394 72.8663 40.1146 72.4198C38.5483 69.4581 37.2995 67.015 38.0477 62.7821C39.2386 56.047 45.2585 51.5419 51.6891 52.0201C55.3089 52.2896 58.2683 53.9565 60.0406 55.666C67.1516 62.5254 64.0068 75.794 53.2689 77.7715C49.8302 78.4046 45.6936 77.4806 43.5779 75.7736H43.5782ZM35.7263 74.2533C36.0031 74.5383 35.6826 74.1278 36.0628 74.5967L37.3612 76.5473C38.7573 77.7971 40.0902 79.2154 42.0492 80.3743C43.7959 81.4075 45.9547 82.188 48.2754 82.5283C54.1464 83.3901 57.326 81.6137 61.5434 79.1818L64.2572 76.533C65.9942 75.0818 67.6982 71.3157 68.3062 68.2628C70.2637 58.4327 63.0882 48.3412 52.651 47.3643C42.118 46.3786 33.3234 54.5754 33.124 64.6555C33.0328 69.2432 34.2568 71.016 35.7263 74.2535V74.2533Z" fill="#ED3237"/>
<path fill-rule="evenodd" clip-rule="evenodd" d="M48.0051 28.5081C41.6009 29.2287 35.1787 31.4675 30.3169 35.3189C27.4104 37.622 26.5613 38.2026 23.897 41.0752C23.2506 41.7716 21.425 43.5683 21.1936 44.5189C20.7133 46.4916 22.3317 48.0602 24.3255 47.4166C25.6721 46.9821 25.9421 44.8974 27.6169 44.6038C29.2213 44.3224 30.5831 46.2836 29.4989 47.9376C27.7647 50.5838 27.0124 50.4878 24.8533 55.4669C24.2914 56.7622 23.1821 58.8078 23.9732 60.2283C24.7514 61.6255 26.7 61.8751 27.8193 60.5356C28.5637 59.6449 30.7596 51.0024 38.0959 46.2404C40.6228 44.6002 43.2599 43.3125 46.8607 42.8035C48.7546 42.5359 50.7702 42.8561 51.6416 41.5118C52.669 39.9267 51.6299 38.1747 50.1292 37.8999C47.4745 37.4135 42.2757 38.9204 40.1113 39.852C38.7939 40.4194 37.1704 41.1816 36.0925 41.9238C33.6584 43.6 32.4555 42.0177 32.3557 40.9068C32.2099 39.2864 34.0251 38.4388 35.2097 37.6838C45.1171 31.3685 52.7955 35.0235 51.9903 30.3091C51.6764 28.4715 50.0497 28.278 48.0054 28.5081H48.0051Z" fill="#ED3237"/>
<path fill-rule="evenodd" clip-rule="evenodd" d="M68.721 42.3957C67.9522 40.4042 70.7704 39.1686 72.4787 41.3455C73.2323 42.306 75.3043 44.1995 75.6156 45.1908C76.2724 47.2816 73.1434 47.9539 71.7988 46.2237L68.721 42.3957V42.3957ZM69.1101 35.5905C66.7791 36.1035 65.294 37.4067 64.4838 39.2415C62.5657 43.5859 66.28 47.2557 69.1139 50.1638C70.4791 51.5645 72.8487 52.4598 75.3975 51.8383C79.5534 50.8249 82.0785 46.0292 79.1353 41.8214C76.784 38.4595 73.5472 34.6134 69.1101 35.5907V35.5905Z" fill="#ED3237"/>
<path fill-rule="evenodd" clip-rule="evenodd" d="M47.3498 69.0652C47.8182 74.8834 57.4091 74.3849 56.7462 68.0152C56.127 62.0669 46.8353 62.6732 47.3498 69.0652Z" fill="#ED3237"/>
<path fill-rule="evenodd" clip-rule="evenodd" d="M71.4409 19.0272C69.7951 19.401 68.2183 21.0578 68.7121 23.2453C69.7245 27.7312 76.6336 26.2482 75.6113 21.6341C75.258 20.0411 73.4339 18.5746 71.4409 19.0272Z" fill="#ED3237"/>
<path fill-rule="evenodd" clip-rule="evenodd" d="M22.7097 68.7972C19.8874 70.1484 21.7463 74.3176 24.6013 73.0418C27.2539 71.8567 25.6833 67.3737 22.7097 68.7972Z" fill="#ED3237"/>
<path fill-rule="evenodd" clip-rule="evenodd" d="M58.0283 14.5101L57.707 14.6117C57.7339 14.9322 57.7911 14.8438 57.4515 14.776C57.4924 15.094 57.5714 15.0305 57.2671 15.0135L57.1416 15.3109L56.9288 15.7297L56.9359 17.2066C57.5572 19.1676 60.0325 19.447 61.1198 17.8144C62.3854 15.9141 60.6517 14.0476 58.4375 14.2538L58.0286 14.5101H58.0283Z" fill="#ED3237"/>
<path fill-rule="evenodd" clip-rule="evenodd" d="M43.5782 75.7736L40.1144 72.4198C40.3938 72.8666 41.4168 74.1548 41.5936 74.3186C41.9314 74.6315 42.2014 74.7417 42.5453 75.0523C43.01 75.4719 42.896 75.5019 43.5779 75.7736H43.5782Z" fill="#7F7F7F"/>
<path fill-rule="evenodd" clip-rule="evenodd" d="M71.0609 83.6113L74.5931 80.2209C74.9464 79.7266 74.9857 79.7561 75.4521 79.3833L77.2741 77.0258C77.554 76.6809 77.5141 76.7919 77.758 76.4188L76.8154 77.3981C76.4274 77.9226 76.4045 77.7804 76.0652 78.3221C74.9324 80.1292 75.1699 79.1747 74.4829 80.1025C73.0466 82.043 72.0837 82.1854 71.0609 83.6113Z" fill="#7F7F7F"/>
<path fill-rule="evenodd" clip-rule="evenodd" d="M61.5437 79.1819C62.393 78.7539 61.7266 79.1676 62.2571 78.5972C62.6109 78.2165 62.5208 78.329 62.9571 78.0189C63.5837 77.5731 63.7889 77.2643 64.2578 76.5331L61.544 79.1819H61.5437Z" fill="#7F7F7F"/>
<path fill-rule="evenodd" clip-rule="evenodd" d="M57.707 14.612C57.3593 14.5645 57.4025 14.4644 57.4515 14.7763C57.115 14.6965 57.2112 14.6521 57.2671 15.0138L57.1416 15.3112L56.9288 15.73C56.5885 16.4703 56.4775 16.6339 56.9359 17.2069L56.9288 15.73L57.1416 15.3112L57.2671 15.0138C57.5714 15.0308 57.4924 15.0943 57.4515 14.7763C57.7911 14.8441 57.7339 14.9322 57.707 14.612L58.0283 14.5104L58.4372 14.2541L58.0283 14.5104L57.707 14.612Z" fill="#ED3237"/>
<path fill-rule="evenodd" clip-rule="evenodd" d="M19.2237 79.1356L18.9929 78.8903C18.9654 78.8679 18.9029 78.8116 18.8692 78.7849L17.1588 77.4751C17.4578 77.902 17.0758 77.5322 17.6005 77.9353C17.9403 78.1964 17.7049 77.9371 18.1029 78.2871C18.7653 78.8695 18.4222 78.7161 19.2235 79.1356H19.2237Z" fill="#7F7F7F"/>
<path fill-rule="evenodd" clip-rule="evenodd" d="M37.3615 76.5473L36.0631 74.5967C35.6829 74.1276 36.0034 74.5383 35.7266 74.2533L37.3615 76.5473Z" fill="#7F7F7F"/>
<path fill-rule="evenodd" clip-rule="evenodd" d="M20.5028 25.2863L20.2008 25.4022L19.8935 25.5169L19.3433 26.0158C19.0007 25.9741 19.081 25.8939 19.081 26.2306L19.3433 26.0158L19.8935 25.5169L20.2008 25.4022L20.5028 25.2863L21.058 24.7908C21.4385 24.8157 21.3714 24.9239 21.3714 24.5945L21.058 24.7908L20.5028 25.2863Z" fill="#7F7F7F"/>
<path fill-rule="evenodd" clip-rule="evenodd" d="M22.684 29.3615C22.3538 29.3109 22.4389 29.2421 22.4389 29.5799L22.684 29.3615L23.254 28.8807C23.592 28.9566 23.5161 29.0323 23.5161 28.6976L23.254 28.8807L22.684 29.3615Z" fill="#7F7F7F"/>
</g>
<defs>
<clipPath id="clip0_3_107">
<rect width="94.6603" height="94.4389" fill="white"/>
</clipPath>
</defs>
</svg>
