<svg width="106" height="106" viewBox="0 0 106 106" fill="none" xmlns="http://www.w3.org/2000/svg">
<g clip-path="url(#clip0_3_95)">
<path fill-rule="evenodd" clip-rule="evenodd" d="M82.8616 92.805C82.4036 91.2024 82.3815 90.3029 84.2676 90.071C85.2316 91.3088 85.3029 92.9486 82.8616 92.805V92.805ZM50.393 0H55.2665C62.5202 0.311186 69.6742 2.0035 75.7301 5.0558C87.6508 11.0641 94.9077 18.4783 100.896 30.3374C105.084 38.6329 105.833 45.6456 105.833 55.3859C105.833 68.5443 98.8552 81.9429 90.3991 90.399C81.1882 99.6099 68.7129 104.971 56.0337 105.833H48.8079C42.3375 105.387 35.9659 103.732 30.103 100.777C18.1823 94.7689 10.9253 87.3547 4.93749 75.4956C0.749104 67.2001 0 60.1874 0 50.4471C0 43.2078 2.57008 35.0347 5.0558 30.103C11.0641 18.1823 18.4783 10.9253 30.3374 4.93749C36.2725 1.94082 43.2731 0.302408 50.393 0V0ZM78.3957 90.2795C76.3016 89.9243 76.8868 88.2707 78.5295 88.3296C78.9459 89.5116 78.9914 89.1607 78.3957 90.2795ZM30.5405 50.7998C29.8579 49.9574 27.3262 48.5883 26.2227 47.8585C24.4264 46.6706 22.5742 45.9945 22.309 44.973C24.6315 45.5746 35.6412 48.6534 36.5648 49.7415C35.9515 51.2713 33.7476 52.4053 32.7163 53.9748C34.309 55.1011 40.5713 56.9125 43.3554 57.8938L45.9664 58.8751C46.4678 59.1472 46.4356 59.1518 46.7257 59.4C43.345 59.1693 29.7572 57.2901 27.2417 56.4148C27.4451 54.9927 29.2055 53.0207 30.5405 50.7998H30.5405ZM80.533 75.7826C80.9893 77.8946 84.028 81.1584 84.1713 85.418C84.2473 87.6765 83.8292 88.09 82.8845 88.6169C79.8608 90.2071 79.1385 86.4201 78.0016 84.7314C77.2694 86.1758 76.4073 88.8905 74.4436 87.8607C73.1203 86.1146 74.5453 82.5692 74.8765 80.3844C69.6728 82.5276 67.4366 84.3067 60.3237 84.1358C55.0458 84.0091 49.9353 82.3162 46.3024 79.9881C42.2734 77.4062 38.8379 72.5854 34.7941 76.0699C32.7026 77.8721 32.9355 79.9189 32.94 83.255C32.9442 86.3411 32.9403 89.4276 32.9403 92.5136L24.741 92.5015C24.7411 88.4588 24.0438 69.8203 25.5549 66.8433C29.6847 58.7077 36.8928 65.6277 45.8712 65.3461C51.2321 65.178 55.8759 63.2334 59.3923 60.794C67.1447 55.4162 74.2509 41.2364 63.1493 40.9247C55.8294 40.7191 56.8871 35.7654 56.8871 29.2805C56.8871 23.2794 56.8871 17.2782 56.8871 11.277L65.0861 11.1438C65.0864 32.0508 63.8595 27.3668 70.4408 29.7496C75.773 31.6801 81.2645 35.8006 84.2034 40.3183C89.8388 48.9809 90.9597 58.9479 85.7683 68.8283C84.7725 70.7237 81.6969 75.059 80.533 75.7826V75.7826ZM28.4446 32.4554C29.6732 30.6538 36.3489 29.398 38.6589 28.4283C37.0949 25.0828 31.2641 15.128 30.6854 12.4086L39.8398 21.8918C41.2974 23.6117 42.8194 24.9452 44.2599 26.6423C46.457 29.2307 48.054 30.1709 48.2498 31.7782C46.5141 32.9535 39.7836 33.7628 37.0473 34.2539C37.8968 35.3533 38.3663 36.0826 39.1518 37.0586C42.0322 40.6375 53.0323 52.6922 54.5515 55.3598C53.3735 55.2048 50.4191 52.1657 49.3216 51.2249C48.7165 50.7062 48.3257 50.5018 47.7425 49.9654L37.8538 41.1703C36.6148 40.2191 35.836 39.3243 34.63 38.3904C33.3812 37.4233 28.8641 33.5621 28.4446 32.4554V32.4554Z" fill="#F4EB72"/>
<path fill-rule="evenodd" clip-rule="evenodd" d="M74.8765 80.3843C75.2767 77.2532 75.0167 73.3529 73.4867 71.0383C72.0698 70.8019 71.4131 70.5396 71.2172 69.1111C71.0349 67.7811 71.611 66.7893 72.4604 66.4153C74.7125 65.4241 76.9671 67.6946 75.7689 69.5387C76.3404 70.4976 79.7219 75.2122 80.533 75.7825C81.6969 75.0589 84.7725 70.7236 85.7683 68.8282C90.9598 58.9478 89.8388 48.9808 84.2034 40.3182C81.2645 35.8005 75.773 31.68 70.4408 29.7495C63.8595 27.3667 65.0864 32.0507 65.0861 11.1437L56.8871 11.2769C56.8871 17.2781 56.8871 23.2793 56.8871 29.2804C56.8871 35.7654 55.8294 40.7191 63.1493 40.9246C74.2509 41.2363 67.1447 55.4161 59.3923 60.7939C55.8759 63.2333 51.2321 65.1779 45.8712 65.346C36.8928 65.6276 29.6847 58.7076 25.5549 66.8432C24.0438 69.8202 24.7411 88.4586 24.741 92.5015L32.9403 92.5136C32.9403 89.4275 32.9442 86.341 32.94 83.2549C32.9355 79.9189 32.7026 77.872 34.7941 76.0698C38.8379 72.5853 42.2734 77.4061 46.3024 79.9881C49.9353 82.3162 55.0458 84.0089 60.3237 84.1358C67.4366 84.3066 69.6728 82.5276 74.8765 80.3843L74.8765 80.3843Z" fill="#ED3237"/>
<path fill-rule="evenodd" clip-rule="evenodd" d="M38.6588 28.4284C36.3489 29.3981 29.6732 30.6539 28.4445 32.4555C28.864 33.5622 33.3811 37.4234 34.6299 38.3905C35.836 39.3244 36.6148 40.2192 37.8537 41.1704L47.7424 49.9655C48.3256 50.5019 48.7164 50.7063 49.3216 51.225C50.4191 52.1658 53.3735 55.2049 54.5514 55.3599C53.0323 52.6922 42.0322 40.6376 39.1518 37.0587C38.3663 36.0827 37.8968 35.3534 37.0473 34.254C39.7836 33.7629 46.514 32.9536 48.2497 31.7783C48.0539 30.171 46.4569 29.2307 44.2598 26.6424C42.8194 24.9453 41.2974 23.6117 39.8397 21.8918L30.6853 12.4086C31.264 15.1281 37.0948 25.0829 38.6588 28.4284V28.4284Z" fill="#EAB738"/>
<path fill-rule="evenodd" clip-rule="evenodd" d="M73.4866 71.0383C75.0166 73.3528 75.2766 77.2532 74.8764 80.3843C74.5453 82.5692 73.1202 86.1146 74.4435 87.8607C76.4072 88.8904 77.2693 86.1757 78.0015 84.7314C79.1384 86.42 79.8608 90.2071 82.8844 88.6169C83.8291 88.0899 84.2472 87.6765 84.1712 85.4179C84.0279 81.1583 80.9892 77.8945 80.5329 75.7825C79.7218 75.2122 76.3404 70.4976 75.7688 69.5387C74.8283 68.9292 75.0566 68.4468 74.4616 67.4247C70.5832 67.1088 73.1914 69.9841 73.4866 71.0383H73.4866Z" fill="#3369B7"/>
<path fill-rule="evenodd" clip-rule="evenodd" d="M30.5404 50.7998C29.2054 53.0207 27.445 54.9927 27.2415 56.4148C29.7571 57.2901 43.3449 59.1693 46.7256 59.4C46.4355 59.1518 46.4677 59.1472 45.9663 58.8751L43.3553 57.8938C40.5712 56.9125 34.3088 55.1011 32.7162 53.9748C33.7475 52.4053 35.9513 51.2713 36.5647 49.7415C35.6411 48.6534 24.6314 45.5746 22.3089 44.973C22.5741 45.9945 24.4263 46.6706 26.2226 47.8585C27.3261 48.5883 29.8578 49.9574 30.5404 50.7998H30.5404Z" fill="#EAB738"/>
<path fill-rule="evenodd" clip-rule="evenodd" d="M73.4866 71.0383C73.1914 69.984 70.5833 67.1087 74.4616 67.4248C75.0567 68.4468 74.8284 68.9292 75.7689 69.5387C76.9671 67.6946 74.7124 65.4241 72.4603 66.4153C71.6109 66.7893 71.035 67.7811 71.2172 69.1111C71.413 70.5396 72.0697 70.8019 73.4866 71.0383V71.0383Z" fill="#7D2E41"/>
<path fill-rule="evenodd" clip-rule="evenodd" d="M82.8615 92.805C85.303 92.9486 85.2316 91.3087 84.2676 90.0709C82.3815 90.3029 82.4035 91.2024 82.8615 92.805V92.805Z" fill="#3369B7"/>
<path fill-rule="evenodd" clip-rule="evenodd" d="M78.3957 90.2796C78.9914 89.1607 78.9459 89.5116 78.5295 88.3297C76.8868 88.2708 76.3016 89.9243 78.3957 90.2796Z" fill="#3369B7"/>
</g>
<defs>
<clipPath id="clip0_3_95">
<rect width="105.833" height="105.833" fill="white"/>
</clipPath>
</defs>
</svg>
